<svg version="1.2" xmlns="http://www.w3.org/2000/svg" viewBox="0 0 1010 220" width="101" height="22">
	<title>New Project</title>
	<style>
		.s0 { fill: #000000 } 
	</style>
	<path id="Loopin" class="s0" aria-label="Loopin"  d="m166.5 170v-161h32.2v132h60v29zm159.4 3q-18.1 0-32.6-8.3-14.5-8.5-22.8-22.8-8.3-14.5-8.3-31.5 0-17 8.3-31.5 8.3-14.5 22.8-22.8 14.5-8.5 32.6-8.5 18.2 0 32.7 8.5 14.5 8.3 22.8 22.8 8.2 14.5 8.2 31.5 0 17-8.3 31.5-8.2 14.3-22.7 22.8-14.5 8.3-32.7 8.3zm-32.6-62.6q0 9.5 3.9 17.3 4.1 7.8 11.5 12.4 7.6 4.6 17.2 4.6 9.7 0 17-4.6 7.6-4.6 11.5-12.4 4.2-7.8 4.2-17.3 0-9.4-4.2-17.2-4.1-7.8-11.5-12.4-7.3-4.9-17-4.9-9.6 0-17 4.9-7.4 4.6-11.5 12.4-4.1 7.8-4.1 17.2zm168.1 62.6q-18.2 0-32.7-8.3-14.5-8.5-22.7-22.8-8.3-14.5-8.3-31.5 0-17 8.3-31.5 8.2-14.5 22.7-22.8 14.5-8.5 32.7-8.5 18.2 0 32.6 8.5 14.5 8.3 22.8 22.8 8.3 14.5 8.3 31.5 0 17-8.3 31.5-8.3 14.3-22.8 22.8-14.4 8.3-32.6 8.3zm-32.7-62.6q0 9.5 3.9 17.3 4.2 7.8 11.5 12.4 7.6 4.6 17.3 4.6 9.7 0 17-4.6 7.6-4.6 11.5-12.4 4.2-7.8 4.2-17.3 0-9.4-4.2-17.2-4.1-7.8-11.5-12.4-7.3-4.9-17-4.9-9.7 0-17 4.9-7.4 4.6-11.5 12.4-4.2 7.8-4.2 17.2zm110.2 105.6v-165.6h30.6v19.3q5.3-10.6 14.3-16.1 8.9-5.7 23.9-5.7 16.1 0 29.6 8.5 13.6 8.5 21.4 23 8.1 14.2 8.1 31.3 0 17-8.1 31.2-7.8 14.3-21.4 22.8-13.5 8.3-29.6 8.3-14.5 0-23.7-5.3-9-5.5-14-15.4v63.7zm30.1-105.3q0 9.4 4.1 17.2 4.2 7.8 11.8 12.4 7.8 4.6 17.7 4.6 9.6 0 17-4.6 7.6-4.8 11.7-12.6 4.4-8.1 4.4-17.3 0-9.4-4.2-17.2-4.1-7.8-11.7-12.4-7.6-4.9-17.2-4.9-9.9 0-17.7 4.9-7.6 4.6-11.8 12.6-4.1 7.8-4.1 17.3zm111.5 59.3v-119.6h31.1v119.6zm-3.2-147.9q0-7.6 5.3-12.9 5.5-5.3 13.3-5.3 8 0 13.3 5.3 5.3 5.3 5.3 12.9 0 7.8-5.3 13.1-5.3 5.3-13.3 5.3-7.8 0-13.3-5.3-5.3-5.5-5.3-13.1zm52.6 147.9v-119.6h30.6v17.5q9.5-20.3 36.6-20.3 12.9 0 23.2 6.2 10.4 6 16.4 17.3 5.9 11 5.9 25.8v73.1h-31v-65.6q0-14.9-6.9-22.3-6.9-7.3-18.9-7.3-10.6 0-17.7 7.6-7.1 7.3-7.1 22v65.6z"/>
</svg>