<svg xmlns="http://www.w3.org/2000/svg" viewBox="0 0 24 24" fill="none">
  <path d="M8.013 5L0 12.551L3.678 19H16.673L24 5H8.013Z" fill="#072654"/>
  <path d="M9.01 10.147C9.143 9.883 9.431 9.7 9.747 9.7H17.596C17.758 9.7 17.895 9.831 17.901 9.989C17.906 10.147 17.942 10.445 17.663 10.683C17.384 10.921 13.78 14.199 13.489 14.461C13.198 14.723 12.936 14.765 12.708 14.765H9.283L9.01 10.147Z" fill="#white"/>
  <path d="M8.402 14.764H12.039C12.353 14.764 12.635 14.955 12.773 15.231L14.126 18.051H9.774L8.402 14.764Z" fill="#white"/>
</svg> 